# xmcd
#
# Track frame offsets:
# 150
# 13603
# 29628
# 44721
# 58641
# 83980
# 97381
# 116517
# 135475
# 157979
# 168376
# 181827
#
# Disc length: 2543 seconds
#
#
# Revision: 0
# Processed by: cddbd v1.5.1PL2 Copyright (c) Steve Scherf et al.
# Submitted via: FreeRIP 2.944 
#
DISCID=a009ed0c
DTITLE=Marc Ellington Rains/Reins of changes - Rains/Reins of changes
DYEAR=1900
DGENRE=country
TTITLE0=Oh no it can't be so
TTITLE1=On your own
TTITLE2=Saving Grace
TTITLE3=Song for a friend
TTITLE4=Yarrow
TTITLE5=I'm leaving (America)
TTITLE6=Rains/Reins of changes
TTITLE7=The life you love
TTITLE8=Days used to be much warmer
TTITLE9=Alligator man
TTITLE10=All the times
TTITLE11=Blue suede shoes
EXTD=
EXTT0=
EXTT1=
EXTT2=
EXTT3=
EXTT4=
EXTT5=
EXTT6=
EXTT7=
EXTT8=
EXTT9=
EXTT10=
EXTT11=
PLAYORDER=
